<svg width="39" height="37" viewBox="0 0 39 37" fill="none" xmlns="http://www.w3.org/2000/svg">
<rect width="21" height="21" transform="translate(9 8)" fill="#D4BBFE"/>
<path d="M20.5 17.5V10.5H18.5V17.5H11.5V19.5H18.5L18.5 26.5H20.5L20.5 19.5L27.5 19.5L27.5 17.5L20.5 17.5Z" fill="#80629D"/>
<path d="M9 33L30 33V37L9 37L9 33Z" fill="#D4BBFE"/>
<path d="M9 0L30 0V4L9 4L9 0Z" fill="#D4BBFE"/>
<path d="M9 4L30 4V8L9 8L9 4Z" fill="#D4BBFE"/>
<rect x="5" y="4" width="4" height="4" fill="#D4BBFE"/>
<rect x="5" y="29" width="4" height="4" fill="#D4BBFE"/>
<rect x="30" y="29" width="4" height="4" fill="#D4BBFE"/>
<rect x="30" y="4" width="4" height="4" fill="#D4BBFE"/>
<rect x="1" y="8" width="4" height="21" fill="#D4BBFE"/>
<path d="M9 29L30 29V33L9 33L9 29Z" fill="#D4BBFE"/>
<rect x="34" y="8" width="4" height="21" fill="#D4BBFE"/>
<rect x="30" y="8" width="4" height="21" fill="#D4BBFE"/>
<rect x="5" y="8" width="4" height="21" fill="#D4BBFE"/>
</svg>
