<svg width="14" height="16" viewBox="0 0 14 16" fill="none" xmlns="http://www.w3.org/2000/svg">
<g id="Group 734">
<path id="Vector 77" fill-rule="evenodd" clip-rule="evenodd" d="M6 15H8V14H9V13H10V12H11V11H12V9H13V4H12V2H10V1H4V2H2V4H1V9H2V11H3V12H4V13H5V14H6V15ZM5 6H4V8H5V9H6V10H8V9H9V8H10V6H9V5H8V4H6V5H5V6Z" fill="#52C6AA"/>
<g id="Vector">
<path d="M2 11H3V12H2V11Z" fill="black"/>
<path d="M3 12H4V13H3V12Z" fill="black"/>
<path d="M4 13H5V14H4V13Z" fill="black"/>
<path d="M5 14H6V15H5V14Z" fill="black"/>
<path d="M8 14H9V15H8V14Z" fill="black"/>
<path d="M9 13H10V14H9V13Z" fill="black"/>
<path d="M10 12H11V13H10V12Z" fill="black"/>
<path d="M11 11H12V12H11V11Z" fill="black"/>
<path d="M6 6H5V5L6 5V6Z" fill="black"/>
<path d="M9 6H8V5H9V6Z" fill="black"/>
<path d="M9 9H8V8H9V9Z" fill="black"/>
<path d="M6 9H5V8H6V9Z" fill="black"/>
<path d="M5 6H4V8H5V6Z" fill="black"/>
<path d="M8 5V4L6 4V5H8Z" fill="black"/>
<path d="M9 8H10V6H9V8Z" fill="black"/>
<path d="M6 9V10H8V9H6Z" fill="black"/>
<path d="M0 9H1V4H0V9Z" fill="black"/>
<path d="M2 9H1V11H2V9Z" fill="black"/>
<path d="M2 2H1V4H2V2Z" fill="black"/>
<path d="M10 1V0H4V1H10Z" fill="black"/>
<path d="M4 2V1H2V2H4Z" fill="black"/>
<path d="M12 2V1H10V2H12Z" fill="black"/>
<path d="M13 2H12V4H13V2Z" fill="black"/>
<path d="M13 9H14V4H13V9Z" fill="black"/>
<path d="M12 11H13V9H12V11Z" fill="black"/>
<path d="M8 16V15H6V16H8Z" fill="black"/>
</g>
</g>
</svg>
