<svg width="91" height="90" viewBox="0 0 91 90" fill="none" xmlns="http://www.w3.org/2000/svg">
<path d="M30.668 22.5H19.418V37.5H23.168V41.25H30.668V45H34.418V48.75H38.168V52.5H41.918V56.25H38.168V60H34.418V63.75H30.668V67.5H60.668V63.75H56.918V60H53.168V56.25H49.418V52.5H53.168V48.75H56.918V45H60.668V41.25H68.168V37.5H71.918V22.5H60.668V18.75H30.668V22.5Z" fill="#FFB3CB"/>
<path d="M71.918 41.25H68.168V37.5H71.918V41.25Z" fill="black"/>
<path d="M60.668 48.75H56.918V45H60.668V48.75Z" fill="black"/>
<path d="M56.918 52.5H53.168V48.75H56.918V52.5Z" fill="black"/>
<path d="M56.918 60H53.168V56.25H56.918V60Z" fill="black"/>
<path d="M60.668 63.75H56.918V60H60.668V63.75Z" fill="black"/>
<path d="M64.418 67.5H60.668V63.75H64.418V67.5Z" fill="black"/>
<path d="M30.668 67.5H26.918V63.75H30.668V67.5Z" fill="black"/>
<path d="M34.418 63.75H30.668V60H34.418V63.75Z" fill="black"/>
<path d="M38.168 60H34.418V56.25H38.168V60Z" fill="black"/>
<path d="M38.168 52.5H34.418V48.75H38.168V52.5Z" fill="black"/>
<path d="M34.418 48.75H30.668V45H34.418V48.75Z" fill="black"/>
<path d="M23.168 41.25H19.418V37.5H23.168V41.25Z" fill="black"/>
<path d="M38.168 56.25H41.918V52.5H38.168V56.25Z" fill="black"/>
<path d="M49.418 56.25H53.168V52.5H49.418V56.25Z" fill="black"/>
<path d="M30.668 15V18.75H60.668V15H30.668Z" fill="black"/>
<path d="M19.418 18.75V22.5H30.668V18.75H19.418Z" fill="black"/>
<path d="M23.168 26.25H26.918V33.75H23.168V26.25Z" fill="black"/>
<path d="M19.418 22.5H15.668V37.5H19.418V22.5Z" fill="black"/>
<path d="M68.168 33.75H64.418V26.25H68.168V33.75Z" fill="black"/>
<path d="M60.668 18.75V22.5H71.918V18.75H60.668Z" fill="black"/>
<path d="M75.668 22.5H71.918V37.5H75.668V22.5Z" fill="black"/>
<path d="M68.168 45V41.25H60.668V45H68.168Z" fill="black"/>
<path d="M30.668 45V41.25H23.168V45H30.668Z" fill="black"/>
<path d="M60.668 71.25V67.5H30.668V71.25H60.668Z" fill="black"/>
</svg>
