<svg width="91" height="90" viewBox="0 0 91 90" fill="none" xmlns="http://www.w3.org/2000/svg">
<path d="M56.584 26.25V30H34.084V26.25H19.084V30H15.334V60H19.084V63.75H30.334V56.25H34.084V52.5H37.834V48.75H52.834V52.5H56.584V56.25H60.334V63.75H71.584V60H75.334V30H71.584V26.25H56.584Z" fill="#96EED9"/>
<path d="M34.084 52.5H37.834V56.25H34.084V52.5Z" fill="black"/>
<path d="M52.834 52.5H56.584V56.25H52.834V52.5Z" fill="black"/>
<path d="M19.084 37.5H22.834V41.25H19.084V37.5Z" fill="black"/>
<path d="M34.084 52.5H37.834V56.25H34.084V52.5Z" fill="black"/>
<path d="M15.334 26.25H19.084V30H15.334V26.25Z" fill="black"/>
<path d="M71.584 26.25H75.334V30H71.584V26.25Z" fill="black"/>
<path d="M52.834 52.5H56.584V56.25H52.834V52.5Z" fill="black"/>
<path d="M64.084 41.25H67.834V45H64.084V41.25Z" fill="black"/>
<path d="M67.834 37.5H71.584V41.25H67.834V37.5Z" fill="black"/>
<path d="M71.584 60H75.334V63.75H71.584V60Z" fill="black"/>
<path d="M15.334 60H19.084V63.75H15.334V60Z" fill="black"/>
<path d="M22.834 33.75H26.584V37.5H22.834V33.75Z" fill="black"/>
<path d="M26.584 37.5H30.334V41.25H26.584V37.5Z" fill="black"/>
<path d="M22.834 41.25H26.584V45H22.834V41.25Z" fill="black"/>
<path d="M60.334 37.5H64.084L64.084 41.25L60.334 41.25V37.5Z" fill="black"/>
<path d="M64.084 33.75H67.834L67.834 37.5L64.084 37.5L64.084 33.75Z" fill="black"/>
<path d="M37.834 48.75V52.5H52.834L52.834 48.75H37.834Z" fill="black"/>
<path d="M30.334 63.75L34.084 63.75L34.084 56.25L30.334 56.25L30.334 63.75Z" fill="black"/>
<path d="M30.334 67.5V63.75L19.084 63.75V67.5L30.334 67.5Z" fill="black"/>
<path d="M15.334 30H11.584V60H15.334V30Z" fill="black"/>
<path d="M19.084 22.5V26.25H34.084V22.5H19.084Z" fill="black"/>
<path d="M56.584 30V26.25H34.084V30H56.584Z" fill="black"/>
<path d="M71.584 26.25V22.5H56.584V26.25H71.584Z" fill="black"/>
<path d="M79.084 30H75.334V60H79.084V30Z" fill="black"/>
<path d="M60.334 63.75L60.334 67.5L71.584 67.5V63.75L60.334 63.75Z" fill="black"/>
<path d="M56.584 63.75H60.334V56.25L56.584 56.25L56.584 63.75Z" fill="black"/>
</svg>
