<svg width="16" height="16" viewBox="0 0 16 16" fill="none" xmlns="http://www.w3.org/2000/svg">
<g id="Group 744">
<path id="Vector 62" d="M2.66797 4.33325V2.33325H4.66797V1.33325H11.668V2.33325H13.668V4.33325H14.668V11.3333H13.668V13.3333H11.668V14.3333H4.66797V13.3333H2.66797V11.3333H1.66797V4.33325H2.66797Z" fill="#52C6AA"/>
<g id="Vector">
<path d="M4.66797 0.333252V1.33325H6.66797V2.33325H7.66797V1.33325H8.66797V2.33325H9.66797V1.33325H11.668V0.333252H4.66797Z" fill="black"/>
<path d="M3.66797 1.33325H2.66797V2.33325H4.66797V1.33325H3.66797Z" fill="black"/>
<path d="M1.66797 4.33325H2.66797V2.33325H1.66797L1.66797 3.33325V4.33325Z" fill="black"/>
<path d="M4.66797 11.3333H5.66797V8.33325H10.668V11.3333H11.668V8.33325H14.668V11.3333H15.668V4.33325H14.668V7.33325H11.668V4.33325H10.668V7.33325H5.66797V4.33325H4.66797V7.33325H1.66797V4.33325H0.667969V11.3333H1.66797L1.66797 8.33325H4.66797V11.3333Z" fill="black"/>
<path d="M5.66797 4.33325H6.66797V2.33325H5.66797V4.33325Z" fill="black"/>
<path d="M9.66797 4.33325H10.668V2.33325H9.66797V4.33325Z" fill="black"/>
<path d="M13.668 2.33325V1.33325H11.668V2.33325H13.668Z" fill="black"/>
<path d="M13.668 4.33325H14.668V2.33325H13.668V4.33325Z" fill="black"/>
<path d="M14.668 11.3333H13.668V13.3333H14.668V11.3333Z" fill="black"/>
<path d="M13.668 14.3333V13.3333H11.668V14.3333H13.668Z" fill="black"/>
<path d="M10.668 11.3333H9.66797V13.3333H10.668V11.3333Z" fill="black"/>
<path d="M4.66797 14.3333V15.3333H11.668V14.3333H9.66797V13.3333H8.66797V14.3333H7.66797V13.3333H6.66797V14.3333H4.66797Z" fill="black"/>
<path d="M6.66797 11.3333H5.66797V13.3333H6.66797V11.3333Z" fill="black"/>
<path d="M2.66797 13.3333V14.3333H4.66797V13.3333H2.66797Z" fill="black"/>
<path d="M2.66797 11.3333H1.66797V13.3333H2.66797V11.3333Z" fill="black"/>
</g>
</g>
</svg>
