<svg width="39" height="37" viewBox="0 0 39 37" fill="none" xmlns="http://www.w3.org/2000/svg">
<rect width="21" height="21" transform="translate(9 8)" fill="#D4BBFE"/>
<path d="M12.625 14.8334V12.0834H26.375V14.8334H27.75V23.0834H26.375V24.4584H12.625V23.0834H11.25V14.8334H12.625Z" fill="#D4BBFE"/>
<path d="M11.25 23.0834H12.625V24.4584H11.25V23.0834Z" fill="#80629D"/>
<path d="M26.375 23.0834H27.75V24.4584H26.375V23.0834Z" fill="#80629D"/>
<path d="M23.625 16.2084H25V17.5834H23.625V16.2084Z" fill="#80629D"/>
<path d="M22.25 17.5834H23.625V18.9584H22.25V17.5834Z" fill="#80629D"/>
<path d="M25 14.8334H26.375V16.2084H25V14.8334Z" fill="#80629D"/>
<path d="M12.625 14.8334H14V16.2084H12.625V14.8334Z" fill="#80629D"/>
<path d="M14 16.2084H15.375V17.5834H14V16.2084Z" fill="#80629D"/>
<path d="M15.375 17.5834H16.75V18.9584H15.375V17.5834Z" fill="#80629D"/>
<path d="M27.75 23.0834H29.125V13.4584H27.75V12.0834H26.375V14.8334H27.75V23.0834Z" fill="#80629D"/>
<path d="M22.25 20.3334V18.9584H16.75V20.3334H22.25Z" fill="#80629D"/>
<path d="M11.25 13.4584H9.875V23.0834H11.25V14.8334H12.625V12.0834H11.25V13.4584Z" fill="#80629D"/>
<path d="M12.625 10.7084V12.0834H26.375V10.7084H12.625Z" fill="#80629D"/>
<path d="M12.625 24.4584V25.8334H26.375V24.4584H12.625Z" fill="#80629D"/>
<path d="M9 33H30V37H9V33Z" fill="#D4BBFE"/>
<path d="M9 0L30 0V4H9V0Z" fill="#D4BBFE"/>
<path d="M9 4H30V8H9V4Z" fill="#D4BBFE"/>
<rect x="5" y="4" width="4" height="4" fill="#D4BBFE"/>
<rect x="5" y="29" width="4" height="4" fill="#D4BBFE"/>
<rect x="30" y="29" width="4" height="4" fill="#D4BBFE"/>
<rect x="30" y="4" width="4" height="4" fill="#D4BBFE"/>
<rect x="1" y="8" width="4" height="21" fill="#D4BBFE"/>
<path d="M9 29H30V33H9V29Z" fill="#D4BBFE"/>
<rect x="34" y="8" width="4" height="21" fill="#D4BBFE"/>
<rect x="30" y="8" width="4" height="21" fill="#D4BBFE"/>
<rect x="5" y="8" width="4" height="21" fill="#D4BBFE"/>
</svg>
