<svg width="29" height="29" viewBox="0 0 29 29" fill="none" xmlns="http://www.w3.org/2000/svg">
<rect width="13" height="13" transform="matrix(1 0 0 -1 8 21)" fill="#F5BB76"/>
<path d="M18 11H18.875V11.875H18V11Z" fill="#854E0D"/>
<path d="M17.125 11.875H18V12.75H17.125V11.875Z" fill="#854E0D"/>
<path d="M16.25 12.75H17.125V13.625H16.25V12.75Z" fill="#854E0D"/>
<path d="M10.125 11H11V11.875H10.125V11Z" fill="#854E0D"/>
<path d="M11 11.875H11.875V12.75H11V11.875Z" fill="#854E0D"/>
<path d="M11.875 12.75H12.75V13.625H11.875V12.75Z" fill="#854E0D"/>
<path d="M16.25 15.375H17.125V16.25H16.25V15.375Z" fill="#854E0D"/>
<path d="M17.125 16.25H18V17.125H17.125V16.25Z" fill="#854E0D"/>
<path d="M18 17.125H18.875V18H18V17.125Z" fill="#854E0D"/>
<path d="M11.875 15.375H12.75V16.25H11.875V15.375Z" fill="#854E0D"/>
<path d="M11 16.25H11.875V17.125H11V16.25Z" fill="#854E0D"/>
<path d="M10.125 17.125H11V18H10.125V17.125Z" fill="#854E0D"/>
<path d="M19.75 18H18.875V19.75H19.75V18Z" fill="#854E0D"/>
<path d="M18.875 20.625V19.75H10.125V20.625H18.875Z" fill="#854E0D"/>
<path d="M10.125 18H9.25V19.75H10.125V18Z" fill="#854E0D"/>
<path d="M13.625 13.625H12.75V15.375H13.625V13.625Z" fill="#854E0D"/>
<path d="M16.25 13.625H15.375V15.375H16.25V13.625Z" fill="#854E0D"/>
<path d="M18.875 11H19.75V9.25H18.875V11Z" fill="#854E0D"/>
<path d="M10.125 8.375V9.25H18.875V8.375H10.125Z" fill="#854E0D"/>
<path d="M9.25 11H10.125V9.25H9.25V11Z" fill="#854E0D"/>
<path d="M8 4L21 4V0L8 0V4Z" fill="#F5BB76"/>
<path d="M8 29H21V25H8V29Z" fill="#F5BB76"/>
<path d="M8 25H21V21H8V25Z" fill="#F5BB76"/>
<rect width="4" height="4" transform="matrix(1 0 0 -1 4 25)" fill="#F5BB76"/>
<rect width="4" height="4" transform="matrix(1 0 0 -1 4 8)" fill="#F5BB76"/>
<rect width="4" height="4" transform="matrix(1 0 0 -1 21 8)" fill="#F5BB76"/>
<rect width="4" height="4" transform="matrix(1 0 0 -1 21 25)" fill="#F5BB76"/>
<rect width="4" height="13" transform="matrix(1 0 0 -1 0 21)" fill="#F5BB76"/>
<path d="M8 8L21 8V4L8 4V8Z" fill="#F5BB76"/>
<rect width="4" height="13" transform="matrix(1 0 0 -1 25 21)" fill="#F5BB76"/>
<rect width="4" height="13" transform="matrix(1 0 0 -1 21 21)" fill="#F5BB76"/>
<rect width="4" height="13" transform="matrix(1 0 0 -1 4 21)" fill="#F5BB76"/>
</svg>
