<svg width="13" height="13" viewBox="0 0 13 13" fill="none" xmlns="http://www.w3.org/2000/svg">
<g id="Vector">
<path d="M2.78571 1.85714H1.85714V0.928572L2.78571 0.928572V1.85714Z" fill="#AF7885"/>
<path d="M1.85714 2.78571H0.928571V1.85714L1.85714 1.85714V2.78571Z" fill="#AF7885"/>
<path d="M2.78571 9.28572H1.85714V8.35714H2.78571V9.28572Z" fill="#AF7885"/>
<path d="M8.35714 1.85714H7.42857V0.928572L8.35714 0.928572V1.85714Z" fill="#AF7885"/>
<path d="M9.28572 2.78571H8.35714V1.85714H9.28572V2.78571Z" fill="#AF7885"/>
<path d="M10.2143 10.2143H9.28572V9.28572H10.2143V10.2143Z" fill="#AF7885"/>
<path d="M11.1429 11.1429H10.2143V10.2143H11.1429V11.1429Z" fill="#AF7885"/>
<path d="M12.0714 12.0714H11.1429V11.1429H12.0714V12.0714Z" fill="#AF7885"/>
<path d="M13 13H12.0714V12.0714H13V13Z" fill="#AF7885"/>
<path d="M1.85714 8.35714H0.928571V7.42857H1.85714V8.35714Z" fill="#AF7885"/>
<path d="M8.35714 7.42857V8.35714H7.42857V9.28572H9.28572V7.42857H8.35714Z" fill="#AF7885"/>
<path d="M10.2143 2.78571H9.28572V7.42857H10.2143V2.78571Z" fill="#AF7885"/>
<path d="M2.78571 4.05892e-08V0.928572L7.42857 0.928572V0L2.78571 4.05892e-08Z" fill="#AF7885"/>
<path d="M0 7.42857H0.928571V2.78571H2.02946e-08L0 7.42857Z" fill="#AF7885"/>
<path d="M2.78571 9.28572V10.2143H7.42857V9.28572H2.78571Z" fill="#AF7885"/>
</g>
</svg>
